<svg preserveAspectRatio="xMidYMid meet" data-bbox="20 38.004 160 123.996" viewBox="20 38.004 160 123.996" height="200" width="200" xmlns="http://www.w3.org/2000/svg" data-type="color" role="presentation" aria-hidden="true" aria-label="" wixshapeid="11062b_734c58c8c6f54dd3ab23dafab88aca43.svg"><defs><style>#comp-mh7saz6a svg [data-color="1"] {fill: #2F2E2E;}</style></defs>
    <g>
        <path fill="#231f20" d="M100 155.571H37.558c-3.05 0-5.829-1.247-7.844-3.256s-3.266-4.78-3.266-7.821 1.251-5.828 3.253-7.824c2.028-2.009 4.807-3.256 7.857-3.256h124.884c4.833 0 9.224-1.971 12.403-5.14 3.179-3.17 5.155-7.548 5.155-12.37s-1.976-9.188-5.155-12.367a17.53 17.53 0 0 0-12.403-5.14H37.558c-3.05 0-5.829-1.247-7.844-3.256s-3.266-4.78-3.266-7.821 1.251-5.828 3.253-7.825c2.028-2.009 4.807-3.256 7.857-3.256h124.884c4.833 0 9.224-1.971 12.403-5.14 3.179-3.17 5.155-7.548 5.155-12.37s-1.976-9.188-5.155-12.367a17.53 17.53 0 0 0-12.403-5.14h-56.223v-3.218l-5.594 3.218H100v.36l-5.652 3.253 5.935 3.417 5.935 3.414v-4.015h56.223c3.05 0 5.829 1.247 7.857 3.256 2.002 1.996 3.253 4.771 3.253 7.825s-1.251 5.812-3.266 7.821a11.1 11.1 0 0 1-7.844 3.256H37.558c-4.833 0-9.224 1.971-12.403 5.14C21.976 78.128 20 82.51 20 87.316s1.976 9.2 5.155 12.37a17.53 17.53 0 0 0 12.403 5.14h124.884c3.05 0 5.829 1.247 7.857 3.256 2.002 1.996 3.253 4.771 3.253 7.824s-1.251 5.812-3.266 7.821a11.1 11.1 0 0 1-7.844 3.256H37.558c-4.833 0-9.224 1.971-12.403 5.14C21.976 135.302 20 139.684 20 144.49s1.976 9.2 5.155 12.37A17.53 17.53 0 0 0 37.558 162H100z" data-color="1"></path>
    </g>
</svg>