<svg preserveAspectRatio="xMidYMid meet" data-bbox="41.5 19.979 117 159.921" viewBox="41.5 19.979 117 159.921" xmlns="http://www.w3.org/2000/svg" data-type="color" role="presentation" aria-hidden="true" aria-label="" wixshapeid="971fb8969db94e35a09bfafa602159b4.svg"><defs><style>#comp-mh8zraml svg [data-color="1"] {fill: #2F2E2E;}</style></defs>
    <g>
        <path d="M111.6 66.2c.7 0 1.2.6 1.2 1.2v101.9c0 .7-.6 1.2-1.2 1.2H52.2c-.7 0-1.2-.6-1.2-1.2v-102c0-.7.6-1.2 1.2-1.2h59.4m0-9.4H52.2c-5.8 0-10.7 4.8-10.7 10.7v101.8c0 5.9 4.8 10.7 10.7 10.7h59.5c5.9 0 10.7-4.8 10.7-10.7V67.4c-.1-5.8-4.8-10.7-10.8-10.7z" fill="#000010" data-color="1"></path>
        <path d="M136.1 62.3c-2.3 0-4.5-1.9-4.7-4.3-.5-5.5-4.7-10.3-10.1-11.7-2.5-.7-4-3.3-3.4-5.8.7-2.5 3.3-4 5.8-3.4 9.3 2.4 16.3 10.7 17.2 20.1.3 2.6-1.7 5-4.3 5.2-.1-.1-.3-.1-.5-.1z" fill="#000010" data-color="1"></path>
        <path d="M153.7 61.4c-2.6 0-4.8-2.1-4.8-4.8 0-12.8-9.5-24.4-21.9-27.2-2.5-.6-4.2-3.1-3.6-5.7.6-2.5 3.1-4.2 5.7-3.6 16.8 3.7 29.4 19.4 29.4 36.4 0 2.7-2.1 4.9-4.8 4.9z" fill="#000010" data-color="1"></path>
        <path fill="#000010" d="M89.9 153.6a8 8 0 1 1-16 0 8 8 0 0 1 16 0z" data-color="1"></path>
    </g>
</svg>