<svg
  xmlns="http://www.w3.org/2000/svg"
  viewBox="19.999 48 160.001 104.001"
  fill="currentColor"
  aria-hidden="true"
>
  <g>
    <path d="M175.619 108.333c-5.095-8.788-13.074-12.866-17.674-14.581l1.449-5.013 1.747-7.032a5.805 5.805 0 0 0-.716-4.467c-1.199-1.91-3.421-2.939-5.651-2.654a329.11 329.11 0 0 1-43.383 2.882h-4.073a7.32 7.32 0 0 0-4.61 1.643 7.273 7.273 0 0 0-2.683 5.656c0 2.648.724 5.245 2.095 7.511l2.306 3.813c.077.127.167.24.265.344l.01.014c.033.034 3.302 3.456 5.356 7.944 1.537 3.356 1.254 7.093-.774 10.254-2.087 3.252-5.623 5.194-9.461 5.194H89.256a14.466 14.466 0 0 1-9.892-3.893 19.605 19.605 0 0 1-4.244-5.709l-2.523-5.123a16.406 16.406 0 0 1-1.67-6.835 16.354 16.354 0 0 1 1.458-7.093l7.382-16.225a2.023 2.023 0 0 0-.953-2.656l-7.682-3.755a2.017 2.017 0 0 0-2.637.806L50.59 100.373c-2.067-.224-6.168-.479-10.859.255-8.933 1.398-15.668 5.742-19.474 12.562a2.021 2.021 0 0 0 2.13 2.975c.094-.018 7.743-1.362 14.707.56a18.358 18.358 0 0 0-10.682 16.717c0 10.154 8.256 18.415 18.404 18.415 10.146 0 18.402-8.262 18.402-18.415 0-.436-.042-.861-.072-1.289 1.065.083 2.11.129 3.106.129 3.614 0 6.624-.455 8.018-.708a18.183 18.183 0 0 0 7.201 2.315h38.736c4.406 0 8.515-1.858 11.271-5.095.978-1.147 2.528-1.943 4.567-2.395a18.156 18.156 0 0 0-1.466 7.177c0 10.154 8.245 18.414 18.38 18.414 10.146 0 18.401-8.26 18.401-18.414 0-2.655-.565-5.211-1.631-7.553h8.042c.546 0 1.068-.221 1.45-.612a2.03 2.03 0 0 0 .57-1.468c-.158-5.547-1.672-10.948-4.38-15.621z"/>
    <path d="M69.583 64.702l11.978 5.726 4.423 7.685a2.02 2.02 0 0 0 2.76.742 2.023 2.023 0 0 0 .742-2.762l-4.111-7.143 3.202-4.812c.338-.51.429-1.144.245-1.729-.145-.461-3.688-11.323-15.21-14.343a2.02 2.02 0 0 0-2.341 1.095l-4.11 8.746c-1.193 2.538-.106 5.586 2.422 6.795z"/>
  </g>
</svg>

