<svg preserveAspectRatio="xMidYMid meet" data-bbox="36 23 128 154.001" viewBox="36 23 128 154.001" height="200" width="200" xmlns="http://www.w3.org/2000/svg" data-type="color" role="presentation" aria-hidden="true" aria-label="" wixshapeid="11062b_2f008f4728d941dfad16f177e9475d70.svg"><defs><style>#comp-mh7tlzok svg [data-color="1"] {fill: #2F2E2E;}</style></defs>
    <g>
        <path d="M100 23c-35.29 0-64 28.588-64 63.727 0 20.327 10.465 41.629 31.103 63.314 15.137 15.905 30.058 25.875 30.686 26.292a3.994 3.994 0 0 0 4.423 0c.628-.417 15.549-10.387 30.686-26.292C153.535 128.356 164 107.054 164 86.727 164 51.588 135.29 23 100 23zm0 145.116c-10.644-7.658-56-42.58-56-81.389C44 55.999 69.121 31 100 31s56 24.999 56 55.727c0 38.809-45.356 73.731-56 81.389zm0-105.298c-13.233 0-24 10.726-24 23.909 0 13.184 10.767 23.909 24 23.909s24-10.726 24-23.909c0-13.183-10.767-23.909-24-23.909zm0 39.818c-8.822 0-16-7.137-16-15.909 0-8.772 7.178-15.909 16-15.909s16 7.137 16 15.909c0 8.773-7.178 15.909-16 15.909z" fill="#000001" data-color="1"></path>
    </g>
</svg>