<svg preserveAspectRatio="xMidYMid meet" data-bbox="22.951 22.951 154.049 154.049" viewBox="22.951 22.951 154.049 154.049" height="200" width="200" xmlns="http://www.w3.org/2000/svg" data-type="color" role="presentation" aria-hidden="true" aria-label="" wixshapeid="11062b_80a1fb2c81d5457591ecb435a36d6aa2.svg"><defs><style>#comp-mh8zsof22 svg [data-color="1"] {fill: #2F2E2E;}</style></defs>
    <g>
        <path d="M175.828 175.828c-.78.781-1.805 1.172-2.828 1.172s-2.048-.391-2.828-1.172l-45.098-45.098a4.001 4.001 0 0 1-1.983.545 3.974 3.974 0 0 1-2.312-.739c-12.408-8.814-29.082-8.814-41.49 0a4 4 0 0 1-4.633-6.521c11.003-7.816 24.745-9.962 37.256-6.447L86.465 92.121a68.686 68.686 0 0 0-30.353 14.598 3.981 3.981 0 0 1-2.563.932 4 4 0 0 1-2.567-7.069 76.676 76.676 0 0 1 28.847-15.098l-19.78-19.779a101.236 101.236 0 0 0-27.612 17.383 3.984 3.984 0 0 1-2.647 1.003 4 4 0 0 1-2.651-6.997 109.161 109.161 0 0 1 26.843-17.457l-29.81-29.809a4 4 0 1 1 5.656-5.656l33.996 33.996.019.02 26.431 26.431c.269.205.505.448.716.716l84.838 84.838a3.996 3.996 0 0 1 0 5.655zm-48.099-83.821a4.001 4.001 0 0 0 1.84 5.35 68.543 68.543 0 0 1 14.297 9.344c.753.639 1.672.95 2.587.95a4 4 0 0 0 2.591-7.05 76.606 76.606 0 0 0-15.965-10.434 4 4 0 0 0-5.35 1.84zM91.761 57.864c27.493-2.218 55.123 6.98 75.806 25.227.761.671 1.705 1 2.645 1a4 4 0 0 0 2.648-7c-22.303-19.675-52.093-29.597-81.741-27.201a4 4 0 0 0-3.666 4.309 3.997 3.997 0 0 0 4.308 3.665zm8.305 89.727H100c-3.037 0-5.467 2.463-5.467 5.5s2.496 5.5 5.533 5.5a5.5 5.5 0 0 0 0-11z" fill="#000001" data-color="1"></path>
    </g>
</svg>