<svg preserveAspectRatio="xMidYMid meet" data-bbox="19.999 48 160.001 104.001" viewBox="19.999 48 160.001 104.001" height="200" width="200" xmlns="http://www.w3.org/2000/svg" data-type="color" role="presentation" aria-hidden="true" aria-label="" wixshapeid="11062b_ae5855f82ab34ffc9943a0b6eb71c9ea.svg"><defs><style>#comp-mh7saz641 svg [data-color="1"] {fill: #2F2E2E;}</style></defs>
    <g>
        <path d="M175.619 108.333c-5.095-8.788-13.074-12.866-17.674-14.581l1.449-5.013 1.747-7.032a5.805 5.805 0 0 0-.716-4.467c-1.199-1.91-3.421-2.939-5.651-2.654a329.11 329.11 0 0 1-43.383 2.882h-4.073a7.32 7.32 0 0 0-4.61 1.643 7.273 7.273 0 0 0-2.683 5.656c0 2.648.724 5.245 2.095 7.511l2.306 3.813c.077.127.167.24.265.344l.01.014c.033.034 3.302 3.456 5.356 7.944 1.537 3.356 1.254 7.093-.774 10.254-2.087 3.252-5.623 5.194-9.461 5.194H89.256a14.466 14.466 0 0 1-9.892-3.893 19.605 19.605 0 0 1-4.244-5.709l-2.523-5.123a16.406 16.406 0 0 1-1.67-6.835 16.354 16.354 0 0 1 1.458-7.093l7.382-16.225a2.023 2.023 0 0 0-.953-2.656l-7.682-3.755a2.017 2.017 0 0 0-2.637.806L50.59 100.373c-2.067-.224-6.168-.479-10.859.255-8.933 1.398-15.668 5.742-19.474 12.562a2.021 2.021 0 0 0 2.13 2.975c.094-.018 7.743-1.362 14.707.56a18.358 18.358 0 0 0-10.682 16.717c0 10.154 8.256 18.415 18.404 18.415 10.146 0 18.402-8.262 18.402-18.415 0-.436-.042-.861-.072-1.289 1.065.083 2.11.129 3.106.129 3.614 0 6.624-.455 8.018-.708a18.183 18.183 0 0 0 7.201 2.315c.068.007.138.011.208.011h38.736c4.406 0 8.515-1.858 11.271-5.095.978-1.147 2.528-1.943 4.567-2.395a18.156 18.156 0 0 0-1.466 7.177c0 10.154 8.245 18.414 18.38 18.414 10.146 0 18.401-8.26 18.401-18.414 0-2.655-.565-5.211-1.631-7.553h8.042c.546 0 1.068-.221 1.45-.612a2.03 2.03 0 0 0 .57-1.468c-.158-5.547-1.672-10.948-4.38-15.621zm-68.324-15.311l-1.716-2.837a10.477 10.477 0 0 1-1.51-5.418c0-.982.435-1.903 1.195-2.521a3.262 3.262 0 0 1 2.056-.733h4.073c6.931 0 13.893-.228 20.845-.665v7.6a2.022 2.022 0 0 0 4.042 0v-7.883a331.765 331.765 0 0 0 19.031-1.97 1.753 1.753 0 0 1 1.695.797c.249.398.326.885.213 1.339l-1.726 6.958-1.542 5.334h-46.656zm-62.479 54.791c-7.919 0-14.362-6.446-14.362-14.371a14.327 14.327 0 0 1 12.155-14.208c.147.103.297.205.439.312.164.124.328.248.484.378.232.193.451.396.666.602.141.135.287.266.421.407.224.234.43.482.633.731.103.126.214.246.312.376.291.386.562.787.806 1.206.328.561.688 1.093 1.075 1.603.131.173.282.329.419.496.269.326.537.652.832.955.178.184.375.35.562.525.282.263.562.527.864.771.214.173.443.331.667.494.304.222.609.442.931.646.245.155.504.298.759.443.331.187.664.371 1.013.541.274.134.558.259.843.382a20.89 20.89 0 0 0 2.022.762 26.447 26.447 0 0 0 2.191.6c.173.04.333.091.509.127.079.602.118 1.219.118 1.85.001 7.926-6.44 14.372-14.359 14.372zm16.296-19.954c-5.388-.858-9.173-3.098-11.25-6.652a16.463 16.463 0 0 0-1.119-1.677c-1.22-1.603-2.738-2.981-4.533-4.114l-.005-.002c-5.782-3.637-13.233-3.972-17.953-3.72 8.431-9.423 23.628-7.365 24.963-7.164 1.003.309 10.567 3.572 13.856 16.579.025.099.057.195.096.288.105.249 1.537 3.528 4.619 6.679-2.416.207-5.539.277-8.674-.217zm106.415 5.727c0 7.923-6.441 14.37-14.359 14.37-7.906 0-14.338-6.446-14.338-14.37 0-2.728.763-5.336 2.209-7.603.509.007 1.023.017 1.566.05h2.202a11.146 11.146 0 0 0-2.82 7.409c0 6.176 5.021 11.2 11.192 11.2s11.192-5.024 11.192-11.2c0-2.842-1.072-5.432-2.82-7.409h3.813c1.415 2.24 2.163 4.83 2.163 7.553zm-7.198-.145c0 3.946-3.208 7.156-7.151 7.156-3.943 0-7.151-3.21-7.151-7.156 0-3.946 3.208-7.156 7.151-7.156 3.943 0 7.151 3.21 7.151 7.156zm-17.603-11.449c-6.653-.413-11.402 1.003-14.116 4.189-1.988 2.334-4.975 3.673-8.195 3.673H81.787c-8.381-.927-12.351-8.858-12.844-9.911-3-11.623-10.491-16.568-14.36-18.402l16.468-28.524 4.222 2.063-6.568 14.434a20.472 20.472 0 0 0-1.821 8.857 20.51 20.51 0 0 0 2.085 8.533l2.523 5.124a23.628 23.628 0 0 0 5.118 6.883 18.496 18.496 0 0 0 12.645 4.975h10.567c5.221 0 10.029-2.637 12.862-7.053 2.746-4.279 3.137-9.559 1.047-14.125-1-2.186-2.229-4.124-3.323-5.642h44.752c3.629 1.148 11.927 4.612 16.96 13.297 2.033 3.506 3.298 7.489 3.705 11.624l-33.099.005z" fill="#0C2A60" data-color="1"></path>
        <path d="M69.583 64.702l11.978 5.726 4.423 7.685a2.02 2.02 0 0 0 2.76.742 2.023 2.023 0 0 0 .742-2.762l-4.111-7.143 3.202-4.812c.338-.51.429-1.144.245-1.729-.145-.461-3.688-11.323-15.21-14.343a2.02 2.02 0 0 0-2.341 1.095l-4.11 8.746c-1.193 2.538-.106 5.586 2.422 6.795zm1.236-5.072l3.36-7.152c6.595 2.42 9.541 8.098 10.46 10.283l-2.35 3.532-10.963-5.241a1.073 1.073 0 0 1-.507-1.422z" fill="#0C2A60" data-color="1"></path>
    </g>
</svg>