<svg preserveAspectRatio="xMidYMid meet" data-bbox="53.018 56.353 93.965 76.766" xmlns="http://www.w3.org/2000/svg" width="200" height="200" viewBox="53.018 56.353 93.965 76.766" data-type="color" role="presentation" aria-hidden="true" aria-label="" wixshapeid="11062b_cf32e4ca956743f18de04c96f123fae6.svg"><defs><style>#comp-mh7su2r4 svg [data-color="1"] {fill: #2F2E2E;}</style></defs>
    <g>
        <path fill="#000001" d="M138.599 65.588h-6.553c-.511-5.177-4.888-9.235-10.197-9.235-5.309 0-9.686 4.058-10.197 9.235H87.694c-.511-5.177-4.888-9.235-10.197-9.235-5.309 0-9.687 4.058-10.198 9.235h-5.897c-4.623 0-8.384 3.761-8.384 8.385v50.741c0 4.623 3.761 8.384 8.384 8.384H73.95c.037.002.068.021.105.021s.068-.019.105-.021h18.259c.037.002.068.021.105.021s.068-.019.105-.021h18.07c.037.002.068.021.105.021s.068-.019.105-.021h17.107c.037.002.068.021.105.021s.068-.019.105-.021h10.373c4.623 0 8.384-3.761 8.384-8.384V73.973c0-4.624-3.762-8.385-8.384-8.385zm5.088 34.265H129.77V88.631h13.917v11.222zm-17.214 0h-14.021V88.631h14.021v11.222zm-17.318 0H94.172V88.631h14.983v11.222zM56.313 89.474l14.235 10.379H56.313V89.474zm16.093 22.648L60.1 103.149h12.306v8.973zm-16.093 2.385v-10.04l13.769 10.04H56.313zm19.39-11.358h15.173v11.358H75.703v-11.358zm18.469 0h14.983v11.358H94.172v-11.358zm-3.296-3.296H75.703V88.631h15.173v11.222zm-18.47-2.724l-11.654-8.498h11.654v8.498zm0 20.675v9.313l-12.773-9.313h12.773zm3.297 0h15.173v11.999H75.703v-11.999zm18.469 0h14.983v11.999H94.172v-11.999zm18.28 0h14.021v11.999h-14.021v-11.999zm0-3.297v-11.358h14.021v11.358h-14.021zm17.317-11.358h13.917v11.358h-13.917v-11.358zm-7.92-43.499c3.489 0 6.376 2.585 6.869 5.938h-13.739c.493-3.353 3.381-5.938 6.87-5.938zm-44.352 0c3.489 0 6.376 2.585 6.869 5.938h-13.74c.494-3.353 3.382-5.938 6.871-5.938zm-16.096 9.234h6.111c1.042 4.554 5.118 7.965 9.984 7.965a1.648 1.648 0 0 0 0-3.296c-3.033 0-5.612-1.955-6.56-4.669h40.929c1.041 4.554 5.117 7.965 9.983 7.965a1.648 1.648 0 0 0 0-3.296c-3.033 0-5.611-1.955-6.559-4.669h23.309a5.095 5.095 0 0 1 5.088 5.089v11.362H56.313V73.973a5.095 5.095 0 0 1 5.088-5.089zm-5.088 55.83v-5.252l14.181 10.34h-9.093a5.094 5.094 0 0 1-5.088-5.088zm82.286 5.088h-8.829v-11.999h13.917v6.911a5.094 5.094 0 0 1-5.088 5.088z" data-color="1"></path>
    </g>
</svg>