<svg preserveAspectRatio="xMidYMid meet" data-bbox="22 17.492 155.997 165.008" viewBox="22 17.492 155.997 165.008" height="200" width="200" xmlns="http://www.w3.org/2000/svg" data-type="color" role="presentation" aria-hidden="true" aria-label="" wixshapeid="11062b_0297d43217974eaab46666785dd211df.svg"><defs><style>#comp-mh7saz60 svg [data-color="1"] {fill: #2F2E2E;}</style></defs>
    <g>
        <path d="M157.091 41.926a2.5 2.5 0 0 1-2.5-2.5v-2.764a2.5 2.5 0 1 1 5 0v2.764a2.5 2.5 0 0 1-2.5 2.5z" fill="#1A323D" data-color="1"></path>
        <path d="M157.091 29.211a2.5 2.5 0 0 1-2.5-2.5v-2.765a2.5 2.5 0 1 1 5 0v2.765a2.5 2.5 0 0 1-2.5 2.5z" fill="#1A323D" data-color="1"></path>
        <path d="M152.084 34.186h-2.782a2.5 2.5 0 1 1 0-5h2.782a2.5 2.5 0 1 1 0 5z" fill="#1A323D" data-color="1"></path>
        <path d="M164.881 34.186h-2.782a2.5 2.5 0 1 1 0-5h2.782a2.5 2.5 0 1 1 0 5z" fill="#1A323D" data-color="1"></path>
        <path d="M32.915 95.412a2.5 2.5 0 0 1-2.5-2.5v-2.986a2.5 2.5 0 1 1 5 0v2.986a2.5 2.5 0 0 1-2.5 2.5z" fill="#1A323D" data-color="1"></path>
        <path d="M32.915 81.676a2.5 2.5 0 0 1-2.5-2.5V76.19a2.5 2.5 0 1 1 5 0v2.986a2.5 2.5 0 0 1-2.5 2.5z" fill="#1A323D" data-color="1"></path>
        <path d="M27.505 87.051H24.5a2.5 2.5 0 1 1 0-5h3.005a2.5 2.5 0 1 1 0 5z" fill="#1A323D" data-color="1"></path>
        <path d="M41.329 87.051h-3.005a2.5 2.5 0 1 1 0-5h3.005a2.5 2.5 0 1 1 0 5z" fill="#1A323D" data-color="1"></path>
        <path d="M173.152 102.303c-.645 0-1.29-.248-1.779-.743l-2.14-2.167a2.501 2.501 0 0 1 3.558-3.514l2.14 2.167a2.501 2.501 0 0 1-1.779 4.257z" fill="#1A323D" data-color="1"></path>
        <path d="M163.31 92.334a2.49 2.49 0 0 1-1.779-.744l-2.14-2.167a2.5 2.5 0 0 1 3.557-3.513l2.14 2.167a2.5 2.5 0 0 1-1.778 4.257z" fill="#1A323D" data-color="1"></path>
        <path d="M161.054 102.188a2.5 2.5 0 0 1-1.745-4.29l2.181-2.126a2.5 2.5 0 0 1 3.49 3.58l-2.181 2.126a2.492 2.492 0 0 1-1.745.71z" fill="#1A323D" data-color="1"></path>
        <path d="M171.087 92.408a2.5 2.5 0 0 1-1.745-4.29l2.181-2.126a2.5 2.5 0 1 1 3.49 3.58l-2.181 2.126a2.492 2.492 0 0 1-1.745.71z" fill="#1A323D" data-color="1"></path>
        <path d="M50.062 44.766a2.491 2.491 0 0 1-1.762-.727l-2.246-2.231a2.501 2.501 0 0 1 3.525-3.547l2.246 2.231a2.501 2.501 0 0 1-1.763 4.274z" fill="#1A323D" data-color="1"></path>
        <path d="M39.732 34.502a2.491 2.491 0 0 1-1.762-.727l-2.246-2.231a2.501 2.501 0 0 1 3.525-3.547l2.246 2.231a2.501 2.501 0 0 1-1.763 4.274z" fill="#1A323D" data-color="1"></path>
        <path d="M37.487 44.766a2.501 2.501 0 0 1-1.762-4.274l2.246-2.231a2.501 2.501 0 0 1 3.525 3.547l-2.246 2.231a2.495 2.495 0 0 1-1.763.727z" fill="#1A323D" data-color="1"></path>
        <path d="M47.816 34.502a2.501 2.501 0 0 1-1.762-4.274l2.246-2.231a2.501 2.501 0 0 1 3.525 3.547l-2.246 2.231a2.495 2.495 0 0 1-1.763.727z" fill="#1A323D" data-color="1"></path>
        <path d="M95.541 137.076c-4.79 0-7.164-.384-11.65-3.66-6.461-4.716-11.83-11.101-15.525-18.465-4.791-9.531-6.169-14.401-6.909-17.017-.61-2.157-.61-2.157-1.794-2.804l.018-.033c-1.805-.846-4.498-3.241-4.498-6.842v-5.113c0-2.157.895-5.158 5.157-7.206a2.5 2.5 0 0 1 2.165 4.507c-2.058.989-2.322 1.962-2.322 2.699v5.113c0 1.432 1.489 2.286 1.696 2.398.062.027.123.058.182.09 2.903 1.587 3.388 2.935 4.207 5.831.744 2.628 1.988 7.027 6.566 16.135 3.34 6.658 8.183 12.421 14.005 16.67 3.774 2.756 4.709 2.749 10.819 2.683.991-.01 2.098-.022 3.348-.022 1.251 0 2.358.012 3.35.022 6.109.068 7.049.074 10.822-2.682 5.823-4.25 10.666-10.013 14.005-16.669 3.482-6.928 5.884-12.883 6.589-16.339.513-2.467 1.957-4.409 4.177-5.626.063-.035.128-.066.194-.096.214-.116 1.691-.966 1.691-2.394v-5.113c0-.652 0-1.349-.035-1.722a5.838 5.838 0 0 0-.171-.088l-1.995-.83a2.5 2.5 0 0 1 1.922-4.616l2.06.857.119.053c3.101 1.485 3.101 3.509 3.101 6.311v5.148c0 3.6-2.694 5.995-4.5 6.841l.018.033c-.923.506-1.474 1.242-1.683 2.25-1.079 5.289-4.86 13.281-7.018 17.574-3.694 7.363-9.063 13.748-15.525 18.464-5.114 3.734-7.485 3.708-13.822 3.643-.977-.01-2.066-.021-3.298-.021-1.231 0-2.32.011-3.295.021-.78.007-1.5.015-2.171.015z" fill="#1A323D" data-color="1"></path>
        <path d="M140.595 80.693a2.497 2.497 0 0 1-2.042-1.06c-.06-.084-6.04-8.56-12.417-17.129-5.791-7.781-16.116-10.603-24.549-6.71-3.784 1.746-7.978 1.659-11.505-.241-5.022-2.703-9.392-2.938-12.99-.696-.566.418-6.325 4.879-6.086 13.161.102 3.56-1.218 8.565-8.086 12.195l-.111.06a2.499 2.499 0 0 1-3.843-1.631c-.144-.783-3.47-19.341.457-33.848 3.433-12.683 13.817-13.259 18.328-12.87 2.64-5.378 11.939-19.58 34.076-12.489 13.313 4.265 24.684 14.737 30.417 28.014 4.77 11.044 4.991 22.643.608 31.822a2.5 2.5 0 0 1-2.257 1.422zm-77.244-.91-.002.002.002-.002zm.003-.003-.002.003.002-.003zm12.484-42.964c-1.006 0-2.194.098-3.422.409-4.108 1.043-6.856 4.029-8.168 8.875-2.619 9.677-1.663 21.785-.917 27.833 1.841-1.633 2.74-3.565 2.676-5.771-.325-11.29 7.903-17.182 8.254-17.427.032-.022.064-.044.097-.064 5.174-3.272 11.43-3.105 18.093.481 2.131 1.147 4.696 1.185 7.039.103 10.568-4.878 23.461-1.402 30.655 8.265a923.709 923.709 0 0 1 9.764 13.4c1.991-7.1 1.226-15.422-2.257-23.488-5.169-11.97-15.395-21.403-27.353-25.234-22.111-7.084-28.395 10.507-28.651 11.26a2.51 2.51 0 0 1-2.964 1.63c-.012-.004-1.178-.272-2.846-.272z" fill="#1A323D" data-color="1"></path>
        <path d="M26.608 182.5a2.49 2.49 0 0 1-1.812-.777 2.494 2.494 0 0 1-.687-1.619c-.272-3.468-.456-15.105 8.037-24.305 7.009-7.592 17.986-11.442 32.628-11.442 10.936 0 14.394-8.252 15.369-15.175a2.5 2.5 0 0 1 4.951.697c-1.744 12.378-9.15 19.478-20.32 19.478-13.189 0-22.931 3.309-28.955 9.833-7.145 7.74-6.956 17.641-6.728 20.491.069.867-.187 1.584-.762 2.13a2.481 2.481 0 0 1-1.721.689z" fill="#1A323D" data-color="1"></path>
        <path d="M175.408 182.5c-.615 0-1.23-.225-1.713-.68-.581-.547-.84-1.267-.771-2.139.228-2.851.415-12.754-6.73-20.492-6.024-6.524-15.765-9.832-28.953-9.832-11.17 0-18.576-7.099-20.32-19.478a2.5 2.5 0 0 1 4.951-.697c.975 6.923 4.433 15.175 15.369 15.175 14.641 0 25.618 3.849 32.626 11.439 8.523 9.23 8.309 20.919 8.041 24.282a2.478 2.478 0 0 0-.783-1.896 2.5 2.5 0 0 1-1.717 4.318zm1.715-4.32.003.002-.003-.002z" fill="#1A323D" data-color="1"></path>
        <path d="M101.008 168.201c-32.22 0-46.182-18.533-46.761-19.322a2.5 2.5 0 0 1 4.033-2.957c.028.038 3.291 4.375 10.159 8.649 6.328 3.937 17.114 8.63 32.57 8.63s26.242-4.693 32.57-8.63c6.868-4.273 10.131-8.611 10.164-8.655a2.503 2.503 0 0 1 3.494-.524 2.496 2.496 0 0 1 .534 3.487c-.581.79-14.543 19.322-46.763 19.322z" fill="#1A323D" data-color="1"></path>
    </g>
</svg>