<svg preserveAspectRatio="xMidYMid meet" data-bbox="28.001 44.8 143.997 110.4" viewBox="28.001 44.8 143.997 110.4" height="200" width="200" xmlns="http://www.w3.org/2000/svg" data-type="color" role="presentation" aria-hidden="true" aria-label="" wixshapeid="608b1a11b1bf455ca7a369714de05c18.svg"><defs><style>#comp-mh8zramt2 svg [data-color="1"] {fill: #2F2E2E;}</style></defs>
    <g>
        <path d="M115 95.525c-.369 0-.738-.067-1.087-.204L59.914 74.435l2.174-5.56L115 89.339l52.913-20.464 2.174 5.56-53.999 20.886c-.35.137-.719.204-1.088.204z" fill="#C6A105" data-color="1"></path>
        <path d="M85 83.59a2.998 2.998 0 0 1-2.795-1.903 2.977 2.977 0 0 1 1.708-3.861l53.999-20.886a3.004 3.004 0 0 1 3.882 1.699 2.977 2.977 0 0 1-1.708 3.861L86.087 83.386c-.357.14-.724.204-1.087.204z" fill="#C6A105" data-color="1"></path>
        <path d="M115 155.2c-.369 0-.738-.067-1.087-.204L59.914 134.11a2.983 2.983 0 0 1-1.913-2.78v-5.967h6v3.928L115 149.014l50.999-19.724V70.711L115 50.987 64 70.711v18.847h-6V68.671c0-1.23.759-2.334 1.913-2.78l53.999-20.886a2.978 2.978 0 0 1 2.174 0l53.999 20.886a2.983 2.983 0 0 1 1.913 2.78v62.659c0 1.23-.759 2.334-1.913 2.78l-53.999 20.886a2.964 2.964 0 0 1-1.086.204z" fill="#C6A105" data-color="1"></path>
        <path fill="#C6A105" d="M64 110.444v8.951h-6v-8.951h6z" data-color="1"></path>
        <path fill="#C6A105" d="M64 95.525v8.951h-6v-8.951h6z" data-color="1"></path>
        <path fill="#C6A105" d="M70.001 86.574v5.967h-42v-5.967h42z" data-color="1"></path>
        <path fill="#C6A105" d="M82.001 101.493v5.967h-36v-5.967h36z" data-color="1"></path>
        <path fill="#C6A105" d="M73.001 116.411v5.967h-36v-5.967h36z" data-color="1"></path>
        <path fill="#C6A105" d="M118 92.541v59.675h-6V92.541h6z" data-color="1"></path>
        <path fill="#C6A105" d="M159.999 122.379v5.967h-6v-5.967h6z" data-color="1"></path>
        <path fill="#C6A105" d="M151 125.363v5.967h-6v-5.967h6z" data-color="1"></path>
    </g>
</svg>