<svg preserveAspectRatio="xMidYMid meet" data-bbox="55 60.5 90.001 79.001" viewBox="55 60.5 90.001 79.001" height="200" width="200" xmlns="http://www.w3.org/2000/svg" data-type="color" role="presentation" aria-hidden="true" aria-label="" wixshapeid="d5ede97e759c4b56972c1fe25c50b1da.svg"><defs><style>#comp-mh7toiti2 svg [data-color="1"] {fill: #2F2E2E;}</style></defs>
    <g>
        <path d="M120.58 95.34c0-8.633-5.463-15.992-13.097-18.838-.332-3.867-3.54-6.921-7.482-6.921s-7.151 3.054-7.484 6.921c-7.633 2.843-13.094 10.183-13.092 18.731-.715 12.876-4.927 21.656-7.375 25.747-1.336 2.234-1.366 4.93-.077 7.209 1.306 2.311 3.664 3.691 6.308 3.691h9.959c2.082 4.6 6.627 7.621 11.761 7.621 5.133 0 9.677-3.021 11.759-7.621h9.961c2.644 0 5.005-1.379 6.308-3.693 1.289-2.279 1.256-4.972-.08-7.206-2.447-4.092-6.656-12.875-7.369-25.641zm-20.579-21.921c1.435 0 2.668.827 3.288 2.023a20.042 20.042 0 0 0-2.767-.214H99.48c-.942 0-1.861.088-2.769.215.62-1.197 1.854-2.024 3.29-2.024zm0 62.243a9.097 9.097 0 0 1-7.391-3.783h14.78a9.094 9.094 0 0 1-7.389 3.783zm24.699-9.365a3.385 3.385 0 0 1-2.978 1.744H78.281a3.384 3.384 0 0 1-2.978-1.744c-.608-1.077-.596-2.294.032-3.343 2.627-4.393 7.15-13.808 7.916-27.613 0-8.973 7.28-16.274 16.23-16.274h1.042c8.95 0 16.23 7.301 16.232 16.382.76 13.696 5.284 23.111 7.913 27.506.625 1.048.637 2.265.032 3.342z" fill="#713CAF" data-color="1"></path>
        <path d="M100.522 82.269H99.48c-7.188 0-13.035 5.865-13.035 13.021l-.007.335c-.673 12.071-4.142 21.024-6.931 26.409a1.92 1.92 0 0 0 1.695 2.803 1.91 1.91 0 0 0 1.7-1.034c2.966-5.72 6.647-15.212 7.362-28.021l.01-.442c0-5.09 4.13-9.233 9.207-9.233h1.042c1.057 0 1.914-.86 1.914-1.919s-.858-1.919-1.915-1.919z" fill="#713CAF" data-color="1"></path>
        <path d="M77.877 71.415a1.883 1.883 0 0 0 2.679-.28c.331-.385.486-.897.434-1.409-.077-.51-.307-.972-.715-1.279l-7.861-6.422c-.79-.64-2.041-.512-2.704.282-.307.41-.459.895-.409 1.407.052.512.307.972.715 1.304l7.861 6.397z" fill="#713CAF" data-color="1"></path>
        <path d="M62.258 76.917l9.264 4.145c.254.102.511.152.793.152.738 0 1.428-.435 1.735-1.124.434-.972 0-2.099-.97-2.534l-9.239-4.145c-.945-.41-2.118.025-2.527.972-.204.46-.229.972-.05 1.459.176.485.535.87.994 1.075z" fill="#713CAF" data-color="1"></path>
        <path d="M68.486 88.226l-10.007-1.612a1.942 1.942 0 0 0-2.193 1.612c-.077.487.05.997.331 1.407.307.435.74.692 1.251.767l10.004 1.614c.102.025.204.025.307.025.945 0 1.76-.692 1.887-1.612a1.796 1.796 0 0 0-.331-1.434 1.918 1.918 0 0 0-1.249-.767z" fill="#713CAF" data-color="1"></path>
        <path d="M66.801 99.74l-10.081 1.05c-.511.05-.97.28-1.276.69a1.872 1.872 0 0 0-.434 1.409 1.913 1.913 0 0 0 1.914 1.714h.177l10.081-1.049a1.923 1.923 0 0 0 1.303-.717 1.72 1.72 0 0 0 .406-1.382c-.101-1.075-1.043-1.842-2.09-1.715z" fill="#713CAF" data-color="1"></path>
        <path d="M120.931 70.725c.434 0 .867-.155 1.199-.435l7.861-6.397c.409-.332.663-.795.715-1.304a1.94 1.94 0 0 0-.434-1.409c-.638-.767-1.889-.92-2.682-.28l-7.861 6.422c-.406.332-.663.767-.713 1.279a1.95 1.95 0 0 0 .409 1.407c.382.46.918.717 1.506.717z" fill="#713CAF" data-color="1"></path>
        <path d="M125.933 78.963c.331.692 1.019 1.152 1.76 1.152.282 0 .536-.077.793-.18l9.239-4.145a1.998 1.998 0 0 0 1.019-1.074c.179-.46.155-.997-.05-1.457-.409-.922-1.583-1.409-2.527-.975l-9.264 4.145c-.945.435-1.378 1.562-.97 2.534z" fill="#713CAF" data-color="1"></path>
        <path d="M132.109 90.887l10.004-1.587a1.95 1.95 0 0 0 1.608-2.201 1.949 1.949 0 0 0-2.196-1.612l-10.029 1.612c-.484.077-.945.36-1.224.77a1.9 1.9 0 0 0-.359 1.432c.155.922.97 1.612 1.889 1.612.103-.001.205-.001.307-.026z" fill="#713CAF" data-color="1"></path>
        <path d="M144.563 100.355c-.331-.41-.79-.64-1.301-.692l-10.056-1.049c-1.047-.127-2.016.667-2.118 1.717-.05.51.102.997.434 1.407.307.382.768.64 1.276.69l10.106 1.049h.179c.97 0 1.787-.742 1.914-1.714.025-.514-.102-.998-.434-1.408z" fill="#713CAF" data-color="1"></path>
    </g>
</svg>