<svg preserveAspectRatio="xMidYMid meet" data-bbox="28 29.5 144 141" viewBox="28 29.5 144 141" height="200" width="200" xmlns="http://www.w3.org/2000/svg" data-type="color" role="presentation" aria-hidden="true" aria-label="" wixshapeid="2445228bde894e6c9c4633ee5f72ff8c.svg"><defs><style>#comp-mh8zsofe3 svg [data-color="1"] {fill: #2F2E2E;}</style></defs>
    <g>
        <path d="M130 92.509h-6v-9.665c0-6.686-15.571-11.379-24-11.379s-24 4.693-24 11.379v9.665h-6v-9.665c0-12.378 21.17-17.378 30-17.378s30 5 30 17.378v9.665z" fill="#3940B2" data-color="1"></path>
        <path fill="#3940B2" d="M118 86.51v5.999h-6V86.51h6z" data-color="1"></path>
        <path fill="#3940B2" d="M88 86.51v5.999h-6V86.51h6z" data-color="1"></path>
        <path d="M100 62.512c-8.13 0-15-6.868-15-14.998v-3c0-8.139 6.87-15.014 15-15.014s15 6.875 15 15.014v3c0 8.13-6.87 14.998-15 14.998zm0-27.013c-4.878 0-9 4.129-9 9.015v3c0 4.877 4.122 8.999 9 8.999s9-4.122 9-8.999v-3c0-4.886-4.122-9.015-9-9.015z" fill="#3940B2" data-color="1"></path>
        <path d="M169 125.505H31a3 3 0 0 1-3-3V95.509a3 3 0 0 1 3-3h138a3 3 0 0 1 3 3v26.997a2.999 2.999 0 0 1-3 2.999zm-135-5.999h132V98.508H34v20.998z" fill="#3940B2" data-color="1"></path>
        <path d="M160 170.5H40a3 3 0 0 1-3-3v-44.995a3 3 0 0 1 3-3h120a3 3 0 0 1 3 3V167.5a3 3 0 0 1-3 3zm-117-5.999h114v-38.996H43v38.996z" fill="#3940B2" data-color="1"></path>
    </g>
</svg>