<svg preserveAspectRatio="xMidYMid meet" data-bbox="20 25 160 149.9" viewBox="20 25 160 149.9" height="200" width="200" xmlns="http://www.w3.org/2000/svg" data-type="color" role="presentation" aria-hidden="true" aria-label="" wixshapeid="11062b_2a911cf506144965adc7698ea4a78a61.svg"><defs><style>#comp-mh8zsof71 svg [data-color="1"] {fill: #2F2E2E;}</style></defs>
    <g>
        <path d="M29.2 86v82.3h-8.4v6.6h158.4v-6.6h-8.4V86l5.2 3.9 4-5.3L100 25l-2 1.5-78 58.2 4 5.3 5.2-3.9Zm109.6 82.3H61.2v-10.1h77.6zm0-16.7H61.2v-10.1h77.6zm0-16.8H61.2v-10.2h77.6zm0-16.8H61.2v-10.1h77.6zm0-16.8H61.2V91.1h77.6zM35.9 81.1 100 33.3l64.1 47.8v87.3h-18.6V84.5h-91v83.9H35.9z" fill="#080a16" data-color="1"></path>
    </g>
</svg>