<svg preserveAspectRatio="xMidYMid meet" data-bbox="20 25.5 160.001 149" viewBox="20 25.5 160.001 149" height="200" width="200" xmlns="http://www.w3.org/2000/svg" data-type="color" role="presentation" aria-hidden="true" aria-label="" wixshapeid="11062b_6be5e3086c474249a81dc441a6076ff1.svg"><defs><style>#comp-mh8zsofb svg [data-color="1"] {fill: #2F2E2E;}</style></defs>
    <g>
        <path d="M151.296 174.5H48.704a2.623 2.623 0 0 1-2.535-1.958L28.78 106.331a2.628 2.628 0 0 1 2.536-3.294h137.369c.812 0 1.58.378 2.075 1.022.498.645.665 1.484.461 2.272l-17.389 66.211a2.625 2.625 0 0 1-2.536 1.958zm-100.572-5.252h98.551l16.01-60.96H34.714l16.01 60.96z" fill="#266040" data-color="1"></path>
        <path d="M162.699 130.359H37.113a2.624 2.624 0 0 1-2.621-2.626 2.624 2.624 0 0 1 2.621-2.626H162.7a2.626 2.626 0 0 1-.001 5.252z" fill="#266040" data-color="1"></path>
        <path d="M157.093 152.43H42.907a2.624 2.624 0 0 1-2.621-2.626 2.624 2.624 0 0 1 2.621-2.626h114.187a2.626 2.626 0 0 1-.001 5.252z" fill="#266040" data-color="1"></path>
        <path d="M88.447 174.057a2.624 2.624 0 0 1-2.614-2.487l-3.477-65.769a2.626 2.626 0 0 1 2.477-2.761c1.375-.056 2.682 1.033 2.757 2.484l3.477 65.769a2.626 2.626 0 0 1-2.477 2.761c-.047.001-.095.003-.143.003z" fill="#266040" data-color="1"></path>
        <path d="M110.481 174.057c-.048 0-.095-.002-.143-.003a2.625 2.625 0 0 1-2.477-2.761l3.477-65.769c.079-1.452 1.327-2.537 2.757-2.484a2.625 2.625 0 0 1 2.477 2.761l-3.477 65.769a2.623 2.623 0 0 1-2.614 2.487z" fill="#266040" data-color="1"></path>
        <path d="M132.507 174.057a2.626 2.626 0 0 1-2.6-2.971l8.695-65.769a2.634 2.634 0 0 1 2.941-2.258 2.626 2.626 0 0 1 2.252 2.949l-8.695 65.769a2.62 2.62 0 0 1-2.593 2.28z" fill="#266040" data-color="1"></path>
        <path d="M66.424 174.057a2.622 2.622 0 0 1-2.593-2.28l-8.695-65.769a2.625 2.625 0 0 1 2.252-2.949 2.636 2.636 0 0 1 2.941 2.258l8.695 65.769a2.625 2.625 0 0 1-2.6 2.971z" fill="#266040" data-color="1"></path>
        <path d="M177.379 108.288H22.621A2.624 2.624 0 0 1 20 105.662V83.881a2.624 2.624 0 0 1 2.621-2.626H177.38a2.624 2.624 0 0 1 2.621 2.626v21.781a2.626 2.626 0 0 1-2.622 2.626zm-152.138-5.252h149.517V86.507H25.241v16.529z" fill="#266040" data-color="1"></path>
        <path d="M153.459 97.398c-.87 0-1.723-.432-2.221-1.226L115.429 39.28c-3.361-5.339-9.128-8.528-15.43-8.528-6.299 0-12.066 3.189-15.427 8.528l-35.81 56.892a2.617 2.617 0 0 1-3.617.821 2.631 2.631 0 0 1-.819-3.621L80.135 36.48c4.33-6.876 11.756-10.98 19.863-10.98 8.111 0 15.536 4.103 19.867 10.98l35.809 56.892a2.631 2.631 0 0 1-.819 3.621 2.6 2.6 0 0 1-1.396.405z" fill="#266040" data-color="1"></path>
    </g>
</svg>